<?xml version="1.0" encoding="UTF-8"?>
<svg xmlns="http://www.w3.org/2000/svg" xmlns:xlink="http://www.w3.org/1999/xlink" width="97pt" height="30pt" viewBox="0 0 97 30" version="1.1">
<g id="surface1">
<path style=" stroke:none;fill-rule:evenodd;fill:rgb(0.392157%,0.392157%,0.392157%);fill-opacity:1;" d="M 0.71875 23.375 L 16.003906 23.375 L 16.003906 24.046875 L 0.0507812 24.046875 L 0.0507812 0.0429688 L 15.871094 0.0429688 L 15.871094 0.714844 L 0.71875 0.714844 L 0.71875 11.203125 L 14.972656 11.203125 L 14.972656 11.875 L 0.71875 11.875 Z M 27.917969 6.765625 L 28.71875 6.765625 L 22.441406 15.105469 L 29.320312 24.046875 L 28.484375 24.046875 L 22.007812 15.609375 L 15.566406 24.046875 L 14.765625 24.046875 L 21.609375 15.105469 L 15.367188 6.765625 L 16.234375 6.765625 L 22.007812 14.601562 Z M 30.382812 29.964844 L 29.714844 29.964844 L 29.714844 6.765625 L 30.382812 6.765625 L 30.382812 11.609375 L 30.449219 11.609375 C 30.671875 10.847656 30.996094 10.144531 31.417969 9.507812 C 31.839844 8.867188 32.339844 8.3125 32.917969 7.84375 C 33.496094 7.371094 34.160156 7.007812 34.90625 6.75 C 35.652344 6.492188 36.457031 6.363281 37.324219 6.363281 C 38.460938 6.363281 39.476562 6.585938 40.378906 7.035156 C 41.28125 7.484375 42.046875 8.113281 42.683594 8.917969 C 43.316406 9.726562 43.800781 10.675781 44.132812 11.777344 C 44.46875 12.875 44.632812 14.074219 44.632812 15.375 C 44.632812 16.582031 44.472656 17.738281 44.152344 18.835938 C 43.828125 19.933594 43.359375 20.898438 42.75 21.726562 C 42.136719 22.554688 41.375 23.210938 40.460938 23.695312 C 39.550781 24.175781 38.503906 24.417969 37.324219 24.417969 C 35.5 24.417969 34 23.941406 32.820312 22.988281 C 31.640625 22.035156 30.851562 20.773438 30.449219 19.207031 L 30.382812 19.207031 Z M 37.324219 23.777344 C 38.503906 23.777344 39.511719 23.527344 40.34375 23.019531 C 41.179688 22.515625 41.863281 21.867188 42.398438 21.070312 C 42.933594 20.277344 43.328125 19.378906 43.582031 18.382812 C 43.839844 17.382812 43.96875 16.382812 43.96875 15.375 C 43.96875 14.253906 43.828125 13.195312 43.550781 12.195312 C 43.273438 11.199219 42.859375 10.3125 42.316406 9.539062 C 41.769531 8.765625 41.078125 8.15625 40.246094 7.707031 C 39.410156 7.257812 38.4375 7.035156 37.324219 7.035156 C 36.234375 7.035156 35.253906 7.257812 34.386719 7.707031 C 33.519531 8.15625 32.792969 8.761719 32.203125 9.523438 C 31.613281 10.285156 31.160156 11.171875 30.851562 12.179688 C 30.539062 13.1875 30.382812 14.253906 30.382812 15.375 C 30.382812 18.085938 31.015625 20.164062 32.285156 21.609375 C 33.554688 23.054688 35.234375 23.777344 37.324219 23.777344 Z M 47.367188 24.046875 L 46.699219 24.046875 L 46.699219 6.765625 L 47.367188 6.765625 L 47.367188 11.035156 L 47.433594 11.035156 C 47.589844 10.386719 47.835938 9.777344 48.167969 9.203125 C 48.5 8.632812 48.945312 8.132812 49.503906 7.707031 C 50.058594 7.28125 50.722656 6.945312 51.488281 6.699219 C 52.257812 6.453125 53.152344 6.339844 54.175781 6.363281 L 54.175781 7.035156 C 52.996094 6.96875 51.980469 7.132812 51.121094 7.523438 C 50.265625 7.914062 49.558594 8.453125 49.003906 9.136719 C 48.445312 9.820312 48.035156 10.609375 47.765625 11.507812 C 47.5 12.402344 47.367188 13.324219 47.367188 14.261719 Z M 54.070312 15.542969 C 54.09375 16.707031 54.234375 17.789062 54.488281 18.785156 C 54.746094 19.78125 55.140625 20.652344 55.671875 21.390625 C 56.207031 22.128906 56.898438 22.714844 57.742188 23.140625 C 58.589844 23.566406 59.625 23.777344 60.847656 23.777344 C 62.648438 23.777344 64.144531 23.300781 65.335938 22.347656 C 66.527344 21.394531 67.265625 19.96875 67.554688 18.0625 L 68.222656 18.0625 C 67.976562 20.078125 67.1875 21.644531 65.851562 22.753906 C 64.519531 23.863281 62.871094 24.417969 60.914062 24.417969 C 59.578125 24.4375 58.4375 24.226562 57.492188 23.777344 C 56.546875 23.328125 55.773438 22.695312 55.171875 21.878906 C 54.570312 21.058594 54.128906 20.097656 53.839844 18.988281 C 53.546875 17.878906 53.402344 16.683594 53.402344 15.40625 C 53.402344 13.972656 53.617188 12.695312 54.039062 11.574219 C 54.460938 10.453125 55.015625 9.507812 55.707031 8.734375 C 56.398438 7.960938 57.199219 7.371094 58.109375 6.96875 C 59.023438 6.566406 59.957031 6.363281 60.914062 6.363281 C 62.25 6.363281 63.398438 6.621094 64.367188 7.136719 C 65.335938 7.652344 66.125 8.335938 66.738281 9.1875 C 67.351562 10.039062 67.792969 11.015625 68.074219 12.113281 C 68.351562 13.210938 68.46875 14.351562 68.421875 15.542969 Z M 67.753906 14.867188 C 67.753906 13.816406 67.609375 12.8125 67.320312 11.859375 C 67.03125 10.90625 66.605469 10.074219 66.035156 9.355469 C 65.46875 8.636719 64.761719 8.070312 63.917969 7.65625 C 63.070312 7.242188 62.09375 7.035156 60.980469 7.035156 C 60.046875 7.035156 59.171875 7.214844 58.359375 7.574219 C 57.546875 7.933594 56.835938 8.453125 56.222656 9.136719 C 55.613281 9.820312 55.117188 10.644531 54.738281 11.609375 C 54.359375 12.570312 54.136719 13.660156 54.070312 14.867188 Z M 81.335938 11.875 L 82.003906 11.875 C 82.003906 9.949219 81.445312 8.546875 80.335938 7.675781 C 79.222656 6.800781 77.707031 6.363281 75.796875 6.363281 C 74.726562 6.363281 73.824219 6.496094 73.09375 6.765625 C 72.359375 7.035156 71.757812 7.382812 71.289062 7.808594 C 70.824219 8.234375 70.488281 8.707031 70.289062 9.222656 C 70.089844 9.738281 69.988281 10.230469 69.988281 10.699219 C 69.988281 11.640625 70.15625 12.390625 70.488281 12.953125 C 70.824219 13.511719 71.34375 13.949219 72.058594 14.261719 C 72.546875 14.488281 73.101562 14.691406 73.726562 14.867188 C 74.347656 15.046875 75.070312 15.238281 75.894531 15.441406 C 76.628906 15.621094 77.351562 15.800781 78.066406 15.976562 C 78.777344 16.15625 79.40625 16.398438 79.949219 16.699219 C 80.496094 17.003906 80.941406 17.390625 81.285156 17.859375 C 81.628906 18.332031 81.804688 18.949219 81.804688 19.710938 C 81.804688 20.449219 81.628906 21.078125 81.285156 21.59375 C 80.941406 22.109375 80.5 22.527344 79.96875 22.851562 C 79.433594 23.179688 78.839844 23.414062 78.183594 23.558594 C 77.523438 23.703125 76.886719 23.777344 76.261719 23.777344 C 74.238281 23.777344 72.6875 23.324219 71.605469 22.417969 C 70.527344 21.507812 69.988281 20.078125 69.988281 18.128906 L 69.320312 18.128906 C 69.320312 20.304688 69.90625 21.894531 71.074219 22.902344 C 72.242188 23.914062 73.972656 24.417969 76.261719 24.417969 C 76.996094 24.417969 77.738281 24.332031 78.480469 24.164062 C 79.226562 23.996094 79.894531 23.722656 80.484375 23.339844 C 81.074219 22.960938 81.554688 22.464844 81.917969 21.863281 C 82.285156 21.257812 82.46875 20.515625 82.46875 19.644531 C 82.46875 18.8125 82.308594 18.140625 81.988281 17.625 C 81.664062 17.109375 81.242188 16.683594 80.71875 16.347656 C 80.195312 16.011719 79.605469 15.75 78.949219 15.558594 C 78.292969 15.367188 77.632812 15.183594 76.964844 15.003906 C 76.027344 14.757812 75.210938 14.542969 74.511719 14.363281 C 73.808594 14.183594 73.160156 13.972656 72.558594 13.726562 C 71.980469 13.480469 71.519531 13.125 71.171875 12.667969 C 70.828125 12.207031 70.65625 11.550781 70.65625 10.699219 C 70.65625 10.542969 70.699219 10.261719 70.789062 9.859375 C 70.878906 9.457031 71.089844 9.046875 71.421875 8.632812 C 71.757812 8.21875 72.269531 7.847656 72.957031 7.523438 C 73.648438 7.199219 74.59375 7.035156 75.796875 7.035156 C 76.617188 7.035156 77.371094 7.125 78.046875 7.304688 C 78.726562 7.484375 79.3125 7.769531 79.800781 8.160156 C 80.289062 8.554688 80.667969 9.054688 80.933594 9.65625 C 81.203125 10.261719 81.335938 11.003906 81.335938 11.875 Z M 95.851562 11.875 L 96.519531 11.875 C 96.519531 9.949219 95.960938 8.546875 94.847656 7.675781 C 93.738281 6.800781 92.222656 6.363281 90.308594 6.363281 C 89.242188 6.363281 88.339844 6.496094 87.605469 6.765625 C 86.871094 7.035156 86.269531 7.382812 85.804688 7.808594 C 85.335938 8.234375 85.003906 8.707031 84.804688 9.222656 C 84.601562 9.738281 84.503906 10.230469 84.503906 10.699219 C 84.503906 11.640625 84.667969 12.390625 85.003906 12.953125 C 85.335938 13.511719 85.859375 13.949219 86.570312 14.261719 C 87.0625 14.488281 87.617188 14.691406 88.242188 14.867188 C 88.863281 15.046875 89.585938 15.238281 90.410156 15.441406 C 91.144531 15.621094 91.867188 15.800781 92.578125 15.976562 C 93.292969 16.15625 93.921875 16.398438 94.464844 16.699219 C 95.011719 17.003906 95.457031 17.390625 95.800781 17.859375 C 96.144531 18.332031 96.316406 18.949219 96.316406 19.710938 C 96.316406 20.449219 96.144531 21.078125 95.800781 21.59375 C 95.457031 22.109375 95.015625 22.527344 94.480469 22.851562 C 93.949219 23.179688 93.351562 23.414062 92.695312 23.558594 C 92.039062 23.703125 91.398438 23.777344 90.777344 23.777344 C 88.753906 23.777344 87.199219 23.324219 86.121094 22.417969 C 85.042969 21.507812 84.503906 20.078125 84.503906 18.128906 L 83.835938 18.128906 C 83.835938 20.304688 84.417969 21.894531 85.585938 22.902344 C 86.753906 23.914062 88.484375 24.417969 90.777344 24.417969 C 91.511719 24.417969 92.25 24.332031 92.996094 24.164062 C 93.742188 23.996094 94.410156 23.722656 95 23.339844 C 95.589844 22.960938 96.066406 22.464844 96.433594 21.863281 C 96.800781 21.257812 96.984375 20.515625 96.984375 19.644531 C 96.984375 18.8125 96.824219 18.140625 96.5 17.625 C 96.179688 17.109375 95.753906 16.683594 95.234375 16.347656 C 94.710938 16.011719 94.121094 15.75 93.464844 15.558594 C 92.808594 15.367188 92.144531 15.183594 91.476562 15.003906 C 90.542969 14.757812 89.726562 14.542969 89.023438 14.363281 C 88.324219 14.183594 87.671875 13.972656 87.074219 13.726562 C 86.492188 13.480469 86.03125 13.125 85.6875 12.667969 C 85.34375 12.207031 85.171875 11.550781 85.171875 10.699219 C 85.171875 10.542969 85.214844 10.261719 85.304688 9.859375 C 85.390625 9.457031 85.605469 9.046875 85.9375 8.632812 C 86.269531 8.21875 86.78125 7.847656 87.472656 7.523438 C 88.164062 7.199219 89.109375 7.035156 90.308594 7.035156 C 91.132812 7.035156 91.882812 7.125 92.5625 7.304688 C 93.242188 7.484375 93.824219 7.769531 94.316406 8.160156 C 94.804688 8.554688 95.183594 9.054688 95.449219 9.65625 C 95.71875 10.261719 95.851562 11.003906 95.851562 11.875 Z M 95.851562 11.875 "/>
</g>
</svg>
